<?xml version="1.0" encoding="UTF-8" standalone="no"?><svg xmlns="http://www.w3.org/2000/svg" xmlns:xlink="http://www.w3.org/1999/xlink" contentScriptType="application/ecmascript" contentStyleType="text/css" height="782px" preserveAspectRatio="none" style="width:999px;height:782px;" version="1.1" viewBox="0 0 999 782" width="999px" zoomAndPan="magnify"><defs><filter height="300%" id="ftmxytjgmjjay" width="300%" x="-1" y="-1"><feGaussianBlur result="blurOut" stdDeviation="2.0"/><feColorMatrix in="blurOut" result="blurOut2" type="matrix" values="0 0 0 0 0 0 0 0 0 0 0 0 0 0 0 0 0 0 .4 0"/><feOffset dx="4.0" dy="4.0" in="blurOut2" result="blurOut3"/><feBlend in="SourceGraphic" in2="blurOut3" mode="normal"/></filter></defs><g><!--MD5=[27f772719433d509ddbc20ff768eba08]
cluster domain--><polygon fill="#FFFFFF" filter="url(#ftmxytjgmjjay)" points="16,6,79,6,86,28.2969,982,28.2969,982,775,16,775,16,6" style="stroke:#000000;stroke-width:1.5;"/><line style="stroke:#000000;stroke-width:1.5;" x1="16" x2="86" y1="28.2969" y2="28.2969"/><text fill="#000000" font-family="sans-serif" font-size="14" font-weight="bold" lengthAdjust="spacing" textLength="57" x="20" y="20.9951">domain</text><!--MD5=[09e3160644ea82bed9dc2bfdc7bfe5c8]
class Producer--><rect codeLine="5" fill="#FEFECE" filter="url(#ftmxytjgmjjay)" height="137.6328" id="Producer" style="stroke:#A80036;stroke-width:1.5;" width="225" x="436.5" y="41"/><ellipse cx="516.25" cy="57" fill="#ADD1B2" rx="11" ry="11" style="stroke:#A80036;stroke-width:1.0;"/><path d="M519.2188,62.6406 Q518.6406,62.9375 518,63.0781 Q517.3594,63.2344 516.6563,63.2344 Q514.1563,63.2344 512.8281,61.5938 Q511.5156,59.9375 511.5156,56.8125 Q511.5156,53.6875 512.8281,52.0313 Q514.1563,50.375 516.6563,50.375 Q517.3594,50.375 518,50.5313 Q518.6563,50.6875 519.2188,50.9844 L519.2188,53.7031 Q518.5938,53.125 518,52.8594 Q517.4063,52.5781 516.7813,52.5781 Q515.4375,52.5781 514.75,53.6563 Q514.0625,54.7188 514.0625,56.8125 Q514.0625,58.9063 514.75,59.9844 Q515.4375,61.0469 516.7813,61.0469 Q517.4063,61.0469 518,60.7813 Q518.5938,60.5 519.2188,59.9219 L519.2188,62.6406 Z " fill="#000000"/><text fill="#000000" font-family="sans-serif" font-size="12" lengthAdjust="spacing" textLength="57" x="536.75" y="61.1543">Producer</text><line style="stroke:#A80036;stroke-width:1.5;" x1="437.5" x2="660.5" y1="73" y2="73"/><rect fill="none" height="6" style="stroke:#C82930;stroke-width:1.0;" width="6" x="444.5" y="81"/><text fill="#000000" font-family="sans-serif" font-size="11" lengthAdjust="spacing" textLength="77" x="456.5" y="87.2104">email : String</text><rect fill="none" height="6" style="stroke:#C82930;stroke-width:1.0;" width="6" x="444.5" y="93.8047"/><text fill="#000000" font-family="sans-serif" font-size="11" lengthAdjust="spacing" textLength="78" x="456.5" y="100.0151">name : String</text><rect fill="none" height="6" style="stroke:#C82930;stroke-width:1.0;" width="6" x="444.5" y="106.6094"/><text fill="#000000" font-family="sans-serif" font-size="11" lengthAdjust="spacing" textLength="81" x="456.5" y="112.8198">image : String</text><line style="stroke:#A80036;stroke-width:1.0;" x1="437.5" x2="660.5" y1="119.4141" y2="119.4141"/><ellipse cx="447.5" cy="130.4141" fill="#84BE84" rx="3" ry="3" style="stroke:#038048;stroke-width:1.0;"/><text fill="#000000" font-family="sans-serif" font-size="11" lengthAdjust="spacing" textLength="105" x="456.5" y="133.6245">getName() : String</text><ellipse cx="447.5" cy="143.2188" fill="#84BE84" rx="3" ry="3" style="stroke:#038048;stroke-width:1.0;"/><text fill="#000000" font-family="sans-serif" font-size="11" lengthAdjust="spacing" textLength="103" x="456.5" y="146.4292">getEmail() : String</text><ellipse cx="447.5" cy="156.0234" fill="#84BE84" rx="3" ry="3" style="stroke:#038048;stroke-width:1.0;"/><text fill="#000000" font-family="sans-serif" font-size="11" lengthAdjust="spacing" textLength="103" x="456.5" y="159.2339">getImage(): String</text><ellipse cx="447.5" cy="168.8281" fill="#84BE84" rx="3" ry="3" style="stroke:#038048;stroke-width:1.0;"/><text fill="#000000" font-family="sans-serif" font-size="11" lengthAdjust="spacing" textLength="199" x="456.5" y="172.0386">validatePassword(String) : boolean</text><!--MD5=[682cceb3213bcbb637d022cca5daab3c]
class CompanyAdministrator--><rect codeLine="16" fill="#FEFECE" filter="url(#ftmxytjgmjjay)" height="60.8047" id="CompanyAdministrator" style="stroke:#A80036;stroke-width:1.5;" width="173" x="228.5" y="79.5"/><ellipse cx="243.5" cy="95.5" fill="#ADD1B2" rx="11" ry="11" style="stroke:#A80036;stroke-width:1.0;"/><path d="M246.4688,101.1406 Q245.8906,101.4375 245.25,101.5781 Q244.6094,101.7344 243.9063,101.7344 Q241.4063,101.7344 240.0781,100.0938 Q238.7656,98.4375 238.7656,95.3125 Q238.7656,92.1875 240.0781,90.5313 Q241.4063,88.875 243.9063,88.875 Q244.6094,88.875 245.25,89.0313 Q245.9063,89.1875 246.4688,89.4844 L246.4688,92.2031 Q245.8438,91.625 245.25,91.3594 Q244.6563,91.0781 244.0313,91.0781 Q242.6875,91.0781 242,92.1563 Q241.3125,93.2188 241.3125,95.3125 Q241.3125,97.4063 242,98.4844 Q242.6875,99.5469 244.0313,99.5469 Q244.6563,99.5469 245.25,99.2813 Q245.8438,99 246.4688,98.4219 L246.4688,101.1406 Z " fill="#000000"/><text fill="#000000" font-family="sans-serif" font-size="12" lengthAdjust="spacing" textLength="141" x="257.5" y="99.6543">CompanyAdministrator</text><line style="stroke:#A80036;stroke-width:1.5;" x1="229.5" x2="400.5" y1="111.5" y2="111.5"/><rect fill="none" height="6" style="stroke:#C82930;stroke-width:1.0;" width="6" x="236.5" y="119.5"/><text fill="#000000" font-family="sans-serif" font-size="11" lengthAdjust="spacing" textLength="112" x="248.5" y="125.7104">company: Company</text><line style="stroke:#A80036;stroke-width:1.5;" x1="229.5" x2="400.5" y1="132.3047" y2="132.3047"/><!--MD5=[9e0344aee5137892075360975b58a39b]
class SystemAdministrator--><rect codeLine="20" fill="#FEFECE" filter="url(#ftmxytjgmjjay)" height="48" id="SystemAdministrator" style="stroke:#A80036;stroke-width:1.5;" width="161" x="32.5" y="86"/><ellipse cx="47.5" cy="102" fill="#ADD1B2" rx="11" ry="11" style="stroke:#A80036;stroke-width:1.0;"/><path d="M50.4688,107.6406 Q49.8906,107.9375 49.25,108.0781 Q48.6094,108.2344 47.9063,108.2344 Q45.4063,108.2344 44.0781,106.5938 Q42.7656,104.9375 42.7656,101.8125 Q42.7656,98.6875 44.0781,97.0313 Q45.4063,95.375 47.9063,95.375 Q48.6094,95.375 49.25,95.5313 Q49.9063,95.6875 50.4688,95.9844 L50.4688,98.7031 Q49.8438,98.125 49.25,97.8594 Q48.6563,97.5781 48.0313,97.5781 Q46.6875,97.5781 46,98.6563 Q45.3125,99.7188 45.3125,101.8125 Q45.3125,103.9063 46,104.9844 Q46.6875,106.0469 48.0313,106.0469 Q48.6563,106.0469 49.25,105.7813 Q49.8438,105.5 50.4688,104.9219 L50.4688,107.6406 Z " fill="#000000"/><text fill="#000000" font-family="sans-serif" font-size="12" lengthAdjust="spacing" textLength="129" x="61.5" y="106.1543">SystemAdministrator</text><line style="stroke:#A80036;stroke-width:1.5;" x1="33.5" x2="192.5" y1="118" y2="118"/><line style="stroke:#A80036;stroke-width:1.5;" x1="33.5" x2="192.5" y1="126" y2="126"/><!--MD5=[02e4b9b7573f1156f41e60aa5b4e25a4]
class Company--><rect codeLine="24" fill="#FEFECE" filter="url(#ftmxytjgmjjay)" height="124.8281" id="Company" style="stroke:#A80036;stroke-width:1.5;" width="147" x="392.5" y="256"/><ellipse cx="433.6" cy="272" fill="#ADD1B2" rx="11" ry="11" style="stroke:#A80036;stroke-width:1.0;"/><path d="M436.5688,277.6406 Q435.9906,277.9375 435.35,278.0781 Q434.7094,278.2344 434.0063,278.2344 Q431.5063,278.2344 430.1781,276.5938 Q428.8656,274.9375 428.8656,271.8125 Q428.8656,268.6875 430.1781,267.0313 Q431.5063,265.375 434.0063,265.375 Q434.7094,265.375 435.35,265.5313 Q436.0063,265.6875 436.5688,265.9844 L436.5688,268.7031 Q435.9438,268.125 435.35,267.8594 Q434.7563,267.5781 434.1313,267.5781 Q432.7875,267.5781 432.1,268.6563 Q431.4125,269.7188 431.4125,271.8125 Q431.4125,273.9063 432.1,274.9844 Q432.7875,276.0469 434.1313,276.0469 Q434.7563,276.0469 435.35,275.7813 Q435.9438,275.5 436.5688,274.9219 L436.5688,277.6406 Z " fill="#000000"/><text fill="#000000" font-family="sans-serif" font-size="12" lengthAdjust="spacing" textLength="57" x="453.4" y="276.1543">Company</text><line style="stroke:#A80036;stroke-width:1.5;" x1="393.5" x2="538.5" y1="288" y2="288"/><rect fill="none" height="6" style="stroke:#C82930;stroke-width:1.0;" width="6" x="400.5" y="296"/><text fill="#000000" font-family="sans-serif" font-size="11" lengthAdjust="spacing" textLength="60" x="412.5" y="302.2104">regNo : int</text><rect fill="none" height="6" style="stroke:#C82930;stroke-width:1.0;" width="6" x="400.5" y="308.8047"/><text fill="#000000" font-family="sans-serif" font-size="11" lengthAdjust="spacing" textLength="78" x="412.5" y="315.0151">name : String</text><rect fill="none" height="6" style="stroke:#C82930;stroke-width:1.0;" width="6" x="400.5" y="321.6094"/><text fill="#000000" font-family="sans-serif" font-size="11" lengthAdjust="spacing" textLength="97" x="412.5" y="327.8198">manager : String</text><line style="stroke:#A80036;stroke-width:1.0;" x1="393.5" x2="538.5" y1="334.4141" y2="334.4141"/><ellipse cx="403.5" cy="345.4141" fill="#84BE84" rx="3" ry="3" style="stroke:#038048;stroke-width:1.0;"/><text fill="#000000" font-family="sans-serif" font-size="11" lengthAdjust="spacing" textLength="88" x="412.5" y="348.6245">getRegNo() : int</text><ellipse cx="403.5" cy="358.2188" fill="#84BE84" rx="3" ry="3" style="stroke:#038048;stroke-width:1.0;"/><text fill="#000000" font-family="sans-serif" font-size="11" lengthAdjust="spacing" textLength="105" x="412.5" y="361.4292">getName() : String</text><ellipse cx="403.5" cy="371.0234" fill="#84BE84" rx="3" ry="3" style="stroke:#038048;stroke-width:1.0;"/><text fill="#000000" font-family="sans-serif" font-size="11" lengthAdjust="spacing" textLength="121" x="412.5" y="374.2339">getManager() : String</text><!--MD5=[1e4e6ac1845d89d680410515caa0c0ac]
class Channel--><rect codeLine="34" fill="#FEFECE" filter="url(#ftmxytjgmjjay)" height="99.2188" id="Channel" style="stroke:#A80036;stroke-width:1.5;" width="149" x="208.5" y="269"/><ellipse cx="253.25" cy="285" fill="#ADD1B2" rx="11" ry="11" style="stroke:#A80036;stroke-width:1.0;"/><path d="M256.2188,290.6406 Q255.6406,290.9375 255,291.0781 Q254.3594,291.2344 253.6563,291.2344 Q251.1563,291.2344 249.8281,289.5938 Q248.5156,287.9375 248.5156,284.8125 Q248.5156,281.6875 249.8281,280.0313 Q251.1563,278.375 253.6563,278.375 Q254.3594,278.375 255,278.5313 Q255.6563,278.6875 256.2188,278.9844 L256.2188,281.7031 Q255.5938,281.125 255,280.8594 Q254.4063,280.5781 253.7813,280.5781 Q252.4375,280.5781 251.75,281.6563 Q251.0625,282.7188 251.0625,284.8125 Q251.0625,286.9063 251.75,287.9844 Q252.4375,289.0469 253.7813,289.0469 Q254.4063,289.0469 255,288.7813 Q255.5938,288.5 256.2188,287.9219 L256.2188,290.6406 Z " fill="#000000"/><text fill="#000000" font-family="sans-serif" font-size="12" lengthAdjust="spacing" textLength="51" x="273.75" y="289.1543">Channel</text><line style="stroke:#A80036;stroke-width:1.5;" x1="209.5" x2="356.5" y1="301" y2="301"/><rect fill="none" height="6" style="stroke:#C82930;stroke-width:1.0;" width="6" x="216.5" y="309"/><text fill="#000000" font-family="sans-serif" font-size="11" lengthAdjust="spacing" textLength="74" x="228.5" y="315.2104">name: String</text><rect fill="none" height="6" style="stroke:#C82930;stroke-width:1.0;" width="6" x="216.5" y="321.8047"/><text fill="#000000" font-family="sans-serif" font-size="11" lengthAdjust="spacing" textLength="91" x="228.5" y="328.0151">category: String</text><line style="stroke:#A80036;stroke-width:1.0;" x1="209.5" x2="356.5" y1="334.6094" y2="334.6094"/><ellipse cx="219.5" cy="345.6094" fill="#84BE84" rx="3" ry="3" style="stroke:#038048;stroke-width:1.0;"/><text fill="#000000" font-family="sans-serif" font-size="11" lengthAdjust="spacing" textLength="105" x="228.5" y="348.8198">getName() : String</text><ellipse cx="219.5" cy="358.4141" fill="#84BE84" rx="3" ry="3" style="stroke:#038048;stroke-width:1.0;"/><text fill="#000000" font-family="sans-serif" font-size="11" lengthAdjust="spacing" textLength="123" x="228.5" y="361.6245">getCategory() : String</text><!--MD5=[175f95e045c1a44aed0b30df3abe0e5c]
class Program--><rect codeLine="42" fill="#FEFECE" filter="url(#ftmxytjgmjjay)" height="99.2188" id="Program" style="stroke:#A80036;stroke-width:1.5;" width="122" x="331" y="458"/><ellipse cx="362.65" cy="474" fill="#ADD1B2" rx="11" ry="11" style="stroke:#A80036;stroke-width:1.0;"/><path d="M365.6188,479.6406 Q365.0406,479.9375 364.4,480.0781 Q363.7594,480.2344 363.0563,480.2344 Q360.5563,480.2344 359.2281,478.5938 Q357.9156,476.9375 357.9156,473.8125 Q357.9156,470.6875 359.2281,469.0313 Q360.5563,467.375 363.0563,467.375 Q363.7594,467.375 364.4,467.5313 Q365.0563,467.6875 365.6188,467.9844 L365.6188,470.7031 Q364.9938,470.125 364.4,469.8594 Q363.8063,469.5781 363.1813,469.5781 Q361.8375,469.5781 361.15,470.6563 Q360.4625,471.7188 360.4625,473.8125 Q360.4625,475.9063 361.15,476.9844 Q361.8375,478.0469 363.1813,478.0469 Q363.8063,478.0469 364.4,477.7813 Q364.9938,477.5 365.6188,476.9219 L365.6188,479.6406 Z " fill="#000000"/><text fill="#000000" font-family="sans-serif" font-size="12" lengthAdjust="spacing" textLength="53" x="380.35" y="478.1543">Program</text><line style="stroke:#A80036;stroke-width:1.5;" x1="332" x2="452" y1="490" y2="490"/><rect fill="none" height="6" style="stroke:#C82930;stroke-width:1.0;" width="6" x="339" y="498"/><text fill="#000000" font-family="sans-serif" font-size="11" lengthAdjust="spacing" textLength="63" x="351" y="504.2104">title: String</text><rect fill="none" height="6" style="stroke:#C82930;stroke-width:1.0;" width="6" x="339" y="510.8047"/><text fill="#000000" font-family="sans-serif" font-size="11" lengthAdjust="spacing" textLength="87" x="351" y="517.0151">startTime: long</text><rect fill="none" height="6" style="stroke:#C82930;stroke-width:1.0;" width="6" x="339" y="523.6094"/><text fill="#000000" font-family="sans-serif" font-size="11" lengthAdjust="spacing" textLength="81" x="351" y="529.8198">endTime: long</text><line style="stroke:#A80036;stroke-width:1.0;" x1="332" x2="452" y1="536.4141" y2="536.4141"/><ellipse cx="342" cy="547.4141" fill="#84BE84" rx="3" ry="3" style="stroke:#038048;stroke-width:1.0;"/><text fill="#000000" font-family="sans-serif" font-size="11" lengthAdjust="spacing" textLength="96" x="351" y="550.6245">getTitle() : String</text><!--MD5=[a6db4508d99df11b61134feed24d590d]
class CreditRole--><rect codeLine="50" fill="#FEFECE" filter="url(#ftmxytjgmjjay)" height="60.8047" id="CreditRole" style="stroke:#A80036;stroke-width:1.5;" width="96" x="556" y="666"/><ellipse cx="571" cy="682" fill="#ADD1B2" rx="11" ry="11" style="stroke:#A80036;stroke-width:1.0;"/><path d="M573.9688,687.6406 Q573.3906,687.9375 572.75,688.0781 Q572.1094,688.2344 571.4063,688.2344 Q568.9063,688.2344 567.5781,686.5938 Q566.2656,684.9375 566.2656,681.8125 Q566.2656,678.6875 567.5781,677.0313 Q568.9063,675.375 571.4063,675.375 Q572.1094,675.375 572.75,675.5313 Q573.4063,675.6875 573.9688,675.9844 L573.9688,678.7031 Q573.3438,678.125 572.75,677.8594 Q572.1563,677.5781 571.5313,677.5781 Q570.1875,677.5781 569.5,678.6563 Q568.8125,679.7188 568.8125,681.8125 Q568.8125,683.9063 569.5,684.9844 Q570.1875,686.0469 571.5313,686.0469 Q572.1563,686.0469 572.75,685.7813 Q573.3438,685.5 573.9688,684.9219 L573.9688,687.6406 Z " fill="#000000"/><text fill="#000000" font-family="sans-serif" font-size="12" lengthAdjust="spacing" textLength="64" x="585" y="686.1543">CreditRole</text><line style="stroke:#A80036;stroke-width:1.5;" x1="557" x2="651" y1="698" y2="698"/><rect fill="none" height="6" style="stroke:#C82930;stroke-width:1.0;" width="6" x="564" y="706"/><text fill="#000000" font-family="sans-serif" font-size="11" lengthAdjust="spacing" textLength="67" x="576" y="712.2104">title : String</text><line style="stroke:#A80036;stroke-width:1.5;" x1="557" x2="651" y1="718.8047" y2="718.8047"/><!--MD5=[a818d4fdb263ce6d3ad23111dcf8be33]
class Credit--><rect codeLine="55" fill="#FEFECE" filter="url(#ftmxytjgmjjay)" height="124.8281" id="Credit" style="stroke:#A80036;stroke-width:1.5;" width="179" x="302.5" y="634"/><ellipse cx="369.25" cy="650" fill="#ADD1B2" rx="11" ry="11" style="stroke:#A80036;stroke-width:1.0;"/><path d="M372.2188,655.6406 Q371.6406,655.9375 371,656.0781 Q370.3594,656.2344 369.6563,656.2344 Q367.1563,656.2344 365.8281,654.5938 Q364.5156,652.9375 364.5156,649.8125 Q364.5156,646.6875 365.8281,645.0313 Q367.1563,643.375 369.6563,643.375 Q370.3594,643.375 371,643.5313 Q371.6563,643.6875 372.2188,643.9844 L372.2188,646.7031 Q371.5938,646.125 371,645.8594 Q370.4063,645.5781 369.7813,645.5781 Q368.4375,645.5781 367.75,646.6563 Q367.0625,647.7188 367.0625,649.8125 Q367.0625,651.9063 367.75,652.9844 Q368.4375,654.0469 369.7813,654.0469 Q370.4063,654.0469 371,653.7813 Q371.5938,653.5 372.2188,652.9219 L372.2188,655.6406 Z " fill="#000000"/><text fill="#000000" font-family="sans-serif" font-size="12" lengthAdjust="spacing" textLength="37" x="389.75" y="654.1543">Credit</text><line style="stroke:#A80036;stroke-width:1.5;" x1="303.5" x2="480.5" y1="666" y2="666"/><rect fill="none" height="6" style="stroke:#C82930;stroke-width:1.0;" width="6" x="310.5" y="674"/><text fill="#000000" font-family="sans-serif" font-size="11" lengthAdjust="spacing" textLength="78" x="322.5" y="680.2104">name : String</text><rect fill="none" height="6" style="stroke:#C82930;stroke-width:1.0;" width="6" x="310.5" y="686.8047"/><text fill="#000000" font-family="sans-serif" font-size="11" lengthAdjust="spacing" textLength="92" x="322.5" y="693.0151">role : CreditRole</text><rect fill="none" height="6" style="stroke:#C82930;stroke-width:1.0;" width="6" x="310.5" y="699.6094"/><text fill="#000000" font-family="sans-serif" font-size="11" lengthAdjust="spacing" textLength="126" x="322.5" y="705.8198">date : OffsetDateTime</text><line style="stroke:#A80036;stroke-width:1.0;" x1="303.5" x2="480.5" y1="712.4141" y2="712.4141"/><ellipse cx="313.5" cy="723.4141" fill="#84BE84" rx="3" ry="3" style="stroke:#038048;stroke-width:1.0;"/><text fill="#000000" font-family="sans-serif" font-size="11" lengthAdjust="spacing" textLength="105" x="322.5" y="726.6245">getName() : String</text><ellipse cx="313.5" cy="736.2188" fill="#84BE84" rx="3" ry="3" style="stroke:#038048;stroke-width:1.0;"/><text fill="#000000" font-family="sans-serif" font-size="11" lengthAdjust="spacing" textLength="120" x="322.5" y="739.4292">getRole() : CreditRole</text><ellipse cx="313.5" cy="749.0234" fill="#84BE84" rx="3" ry="3" style="stroke:#038048;stroke-width:1.0;"/><text fill="#000000" font-family="sans-serif" font-size="11" lengthAdjust="spacing" textLength="153" x="322.5" y="752.2339">getDate() : OffsetDateTime</text><!--MD5=[9878be2e161685c2af42b541dee0842e]
class AuthController--><rect codeLine="66" fill="#FEFECE" filter="url(#ftmxytjgmjjay)" height="73.6094" id="AuthController" style="stroke:#A80036;stroke-width:1.5;" width="166" x="800" y="73"/><ellipse cx="834.8" cy="89" fill="#ADD1B2" rx="11" ry="11" style="stroke:#A80036;stroke-width:1.0;"/><path d="M837.7688,94.6406 Q837.1906,94.9375 836.55,95.0781 Q835.9094,95.2344 835.2063,95.2344 Q832.7063,95.2344 831.3781,93.5938 Q830.0656,91.9375 830.0656,88.8125 Q830.0656,85.6875 831.3781,84.0313 Q832.7063,82.375 835.2063,82.375 Q835.9094,82.375 836.55,82.5313 Q837.2063,82.6875 837.7688,82.9844 L837.7688,85.7031 Q837.1438,85.125 836.55,84.8594 Q835.9563,84.5781 835.3313,84.5781 Q833.9875,84.5781 833.3,85.6563 Q832.6125,86.7188 832.6125,88.8125 Q832.6125,90.9063 833.3,91.9844 Q833.9875,93.0469 835.3313,93.0469 Q835.9563,93.0469 836.55,92.7813 Q837.1438,92.5 837.7688,91.9219 L837.7688,94.6406 Z " fill="#000000"/><text fill="#000000" font-family="sans-serif" font-size="12" lengthAdjust="spacing" textLength="90" x="853.2" y="93.1543">AuthController</text><line style="stroke:#A80036;stroke-width:1.5;" x1="801" x2="965" y1="105" y2="105"/><line style="stroke:#A80036;stroke-width:1.0;" x1="801" x2="965" y1="113" y2="113"/><ellipse cx="811" cy="124" fill="#84BE84" rx="3" ry="3" style="stroke:#038048;stroke-width:1.0;"/><text fill="#000000" font-family="sans-serif" font-size="11" lengthAdjust="spacing" textLength="140" x="820" y="127.2104">resetPassword() : String</text><ellipse cx="811" cy="136.8047" fill="#84BE84" rx="3" ry="3" style="stroke:#038048;stroke-width:1.0;"/><text fill="#000000" font-family="sans-serif" font-size="11" lengthAdjust="spacing" textLength="105" x="820" y="140.0151">signIn() : Producer</text><!--MD5=[09ce52be0ee7de43c61b6e2d59bf108b]
class Person--><rect codeLine="72" fill="#FEFECE" filter="url(#ftmxytjgmjjay)" height="48" id="Person" style="stroke:#A80036;stroke-width:1.5;" width="76" x="191" y="672.5"/><ellipse cx="206" cy="688.5" fill="#ADD1B2" rx="11" ry="11" style="stroke:#A80036;stroke-width:1.0;"/><path d="M208.9688,694.1406 Q208.3906,694.4375 207.75,694.5781 Q207.1094,694.7344 206.4063,694.7344 Q203.9063,694.7344 202.5781,693.0938 Q201.2656,691.4375 201.2656,688.3125 Q201.2656,685.1875 202.5781,683.5313 Q203.9063,681.875 206.4063,681.875 Q207.1094,681.875 207.75,682.0313 Q208.4063,682.1875 208.9688,682.4844 L208.9688,685.2031 Q208.3438,684.625 207.75,684.3594 Q207.1563,684.0781 206.5313,684.0781 Q205.1875,684.0781 204.5,685.1563 Q203.8125,686.2188 203.8125,688.3125 Q203.8125,690.4063 204.5,691.4844 Q205.1875,692.5469 206.5313,692.5469 Q207.1563,692.5469 207.75,692.2813 Q208.3438,692 208.9688,691.4219 L208.9688,694.1406 Z " fill="#000000"/><text fill="#000000" font-family="sans-serif" font-size="12" lengthAdjust="spacing" textLength="44" x="220" y="692.6543">Person</text><line style="stroke:#A80036;stroke-width:1.5;" x1="192" x2="266" y1="704.5" y2="704.5"/><line style="stroke:#A80036;stroke-width:1.5;" x1="192" x2="266" y1="712.5" y2="712.5"/><!--MD5=[e44229c5e70925dcd4e100cd76fc2258]
class ContactDetails--><rect codeLine="75" fill="#FEFECE" filter="url(#ftmxytjgmjjay)" height="48" id="ContactDetails" style="stroke:#A80036;stroke-width:1.5;" width="124" x="32" y="672.5"/><ellipse cx="47" cy="688.5" fill="#ADD1B2" rx="11" ry="11" style="stroke:#A80036;stroke-width:1.0;"/><path d="M49.9688,694.1406 Q49.3906,694.4375 48.75,694.5781 Q48.1094,694.7344 47.4063,694.7344 Q44.9063,694.7344 43.5781,693.0938 Q42.2656,691.4375 42.2656,688.3125 Q42.2656,685.1875 43.5781,683.5313 Q44.9063,681.875 47.4063,681.875 Q48.1094,681.875 48.75,682.0313 Q49.4063,682.1875 49.9688,682.4844 L49.9688,685.2031 Q49.3438,684.625 48.75,684.3594 Q48.1563,684.0781 47.5313,684.0781 Q46.1875,684.0781 45.5,685.1563 Q44.8125,686.2188 44.8125,688.3125 Q44.8125,690.4063 45.5,691.4844 Q46.1875,692.5469 47.5313,692.5469 Q48.1563,692.5469 48.75,692.2813 Q49.3438,692 49.9688,691.4219 L49.9688,694.1406 Z " fill="#000000"/><text fill="#000000" font-family="sans-serif" font-size="12" lengthAdjust="spacing" textLength="92" x="61" y="692.6543">ContactDetails</text><line style="stroke:#A80036;stroke-width:1.5;" x1="33" x2="155" y1="704.5" y2="704.5"/><line style="stroke:#A80036;stroke-width:1.5;" x1="33" x2="155" y1="712.5" y2="712.5"/><!--MD5=[620d571e077dba97c0fce2ff5173b928]
link SystemAdministrator to Credit--><path codeLine="79" d="M117.35,134.18 C126.8,181.89 151.57,293.87 191,381 C232.29,472.23 296.98,567.93 341.77,629.45 " fill="none" id="SystemAdministrator-to-Credit" style="stroke:#A80036;stroke-width:1.0;"/><polygon fill="#A80036" points="344.96,633.82,342.8974,624.1896,342.0174,629.7776,336.4294,628.8976,344.96,633.82" style="stroke:#A80036;stroke-width:1.0;"/><polygon fill="#000000" points="221.0637,424.1207,220.0074,414.6689,214.6535,417.0949,221.0637,424.1207" style="stroke:#000000;stroke-width:1.0;"/><text fill="#000000" font-family="sans-serif" font-size="13" lengthAdjust="spacing" textLength="60" x="228" y="424.0669">Approves</text><text fill="#000000" font-family="sans-serif" font-size="13" lengthAdjust="spacing" textLength="8" x="109.4353" y="153.9851">1</text><text fill="#000000" font-family="sans-serif" font-size="13" lengthAdjust="spacing" textLength="23" x="315.1913" y="622.7899">1..*</text><!--MD5=[47b08513909cecda75ebaf302d1d0f50]
link SystemAdministrator to CompanyAdministrator--><path codeLine="80" d="M193.88,110 C198.65,110 203.41,110 208.18,110 " fill="none" id="SystemAdministrator-to-CompanyAdministrator" style="stroke:#A80036;stroke-width:1.0;"/><polygon fill="none" points="208.42,103,228.42,110,208.42,117,208.42,103" style="stroke:#A80036;stroke-width:1.0;"/><!--MD5=[17e783bf0bdd3b7e9feb83bc141da981]
link CompanyAdministrator to Producer--><path codeLine="82" d="M401.84,110 C406.6,110 411.36,110 416.12,110 " fill="none" id="CompanyAdministrator-to-Producer" style="stroke:#A80036;stroke-width:1.0;"/><polygon fill="none" points="416.33,103,436.33,110,416.33,117,416.33,103" style="stroke:#A80036;stroke-width:1.0;"/><!--MD5=[fcb1d6488fe43466ecce6ea53daef192]
link CompanyAdministrator to Company--><path codeLine="83" d="M343.7241,150.2685 C343.7241,150.2685 389.86,213.37 412.78,244.72 " fill="none" id="CompanyAdministrator-Company" style="stroke:#A80036;stroke-width:1.0;"/><polygon fill="#A80036" points="420.75,255.62,418.6642,245.9946,417.7977,251.5847,412.2076,250.7182,420.75,255.62" style="stroke:#A80036;stroke-width:1.0;"/><line style="stroke:#A80036;stroke-width:1.0;" x1="417.7977" x2="413.08" y1="251.5847" y2="245.125"/><polygon fill="#FFFFFF" points="336.63,140.59,336.9509,147.794,343.7241,150.2685,343.4032,143.0646,336.63,140.59" style="stroke:#A80036;stroke-width:1.0;"/><polygon fill="#000000" points="402.951,221.6027,399.985,212.5664,395.2401,216.0356,402.951,221.6027" style="stroke:#000000;stroke-width:1.0;"/><text fill="#000000" font-family="sans-serif" font-size="13" lengthAdjust="spacing" textLength="58" x="409" y="222.0669">Manages</text><text fill="#000000" font-family="sans-serif" font-size="13" lengthAdjust="spacing" textLength="7" x="333.3693" y="160.5468">*</text><text fill="#000000" font-family="sans-serif" font-size="13" lengthAdjust="spacing" textLength="8" x="407.3633" y="245.0057">1</text><!--MD5=[76bb363ccf2a88af566b84f1de6a4068]
link CompanyAdministrator to Channel--><path codeLine="84" d="M305.0454,152.5604 C305.0454,152.5604 296.87,190.74 294,209 C291.63,224.04 289.67,240.35 288.08,255.63 " fill="none" id="CompanyAdministrator-Channel" style="stroke:#A80036;stroke-width:1.0;"/><polygon fill="#A80036" points="286.79,268.74,291.6507,260.1742,287.2788,263.764,283.689,259.3921,286.79,268.74" style="stroke:#A80036;stroke-width:1.0;"/><line style="stroke:#A80036;stroke-width:1.0;" x1="287.2788" x2="288.07" y1="263.764" y2="255.805"/><polygon fill="#FFFFFF" points="307.71,140.86,302.4776,145.822,305.0454,152.5604,310.2779,147.5984,307.71,140.86" style="stroke:#A80036;stroke-width:1.0;"/><polygon fill="#000000" points="298.1879,222.5,302.5569,214.0524,296.7571,213.0977,298.1879,222.5" style="stroke:#000000;stroke-width:1.0;"/><text fill="#000000" font-family="sans-serif" font-size="13" lengthAdjust="spacing" textLength="58" x="308" y="222.0669">Manages</text><text fill="#000000" font-family="sans-serif" font-size="13" lengthAdjust="spacing" textLength="7" x="298.6532" y="160.2705">*</text><text fill="#000000" font-family="sans-serif" font-size="13" lengthAdjust="spacing" textLength="7" x="279.829" y="258.1068">*</text><!--MD5=[71a97a490704c070434937750bde4e67]
link Producer to Program--><path codeLine="86" d="M572.16,191.92 C583.59,248.44 588.93,323.71 557,381 C535.98,418.71 463.4006,470.4305 463.4006,470.4305 " fill="none" id="Producer-Program" style="stroke:#A80036;stroke-width:1.0;"/><polygon fill="#FFFFFF" points="453.12,476.62,460.3234,476.9521,463.4006,470.4305,456.1971,470.0984,453.12,476.62" style="stroke:#A80036;stroke-width:1.0;"/><polygon fill="#A80036" points="569.4,179.07,567.3797,188.7094,570.4503,183.9584,575.2013,187.029,569.4,179.07" style="stroke:#A80036;stroke-width:1.0;"/><line style="stroke:#A80036;stroke-width:1.0;" x1="570.4503" x2="572.135" y1="183.9584" y2="191.785"/><polygon fill="#000000" points="584.1812,323.2239,590.209,315.8675,584.7338,313.7294,584.1812,323.2239" style="stroke:#000000;stroke-width:1.0;"/><text fill="#000000" font-family="sans-serif" font-size="13" lengthAdjust="spacing" textLength="34" x="595" y="323.0669">Owns</text><text fill="#000000" font-family="sans-serif" font-size="13" lengthAdjust="spacing" textLength="8" x="563.0144" y="198.6989">1</text><text fill="#000000" font-family="sans-serif" font-size="13" lengthAdjust="spacing" textLength="23" x="461.0628" y="469.4844">1..*</text><!--MD5=[e3b4331ceeb2a83c060af12571a7e3ca]
link Producer to AuthController--><path codeLine="87" d="M674.76,110 C711.86,110 787.9,110 787.9,110 " fill="none" id="Producer-AuthController" style="stroke:#A80036;stroke-width:1.0;"/><polygon fill="#FFFFFF" points="799.9,110,793.9,106,787.9,110,793.9,114,799.9,110" style="stroke:#A80036;stroke-width:1.0;"/><polygon fill="#A80036" points="661.61,110,670.61,114,666.61,110,670.61,106,661.61,110" style="stroke:#A80036;stroke-width:1.0;"/><line style="stroke:#A80036;stroke-width:1.0;" x1="666.61" x2="674.61" y1="110" y2="110"/><polygon fill="#000000" points="678.75,98.5664,687.7951,101.5053,687.7951,95.6275,678.75,98.5664" style="stroke:#000000;stroke-width:1.0;"/><text fill="#000000" font-family="sans-serif" font-size="13" lengthAdjust="spacing" textLength="89" x="692.75" y="103.0669">Authenticates</text><text fill="#000000" font-family="sans-serif" font-size="13" lengthAdjust="spacing" textLength="8" x="669.4447" y="106.5798">1</text><text fill="#000000" font-family="sans-serif" font-size="13" lengthAdjust="spacing" textLength="8" x="783.8705" y="106.3996">1</text><!--MD5=[1fdb9fc6a8b82485479cb590cd830c3d]
link Producer to Company--><path codeLine="88" d="M517.1106,190.3226 C517.1106,190.3226 502.45,226.81 495.61,243.84 " fill="none" id="Producer-Company" style="stroke:#A80036;stroke-width:1.0;"/><polygon fill="#A80036" points="490.72,256,497.7862,249.1394,492.5836,251.3603,490.3627,246.1576,490.72,256" style="stroke:#A80036;stroke-width:1.0;"/><line style="stroke:#A80036;stroke-width:1.0;" x1="492.5836" x2="495.57" y1="251.3603" y2="243.935"/><polygon fill="#FFFFFF" points="521.59,179.19,515.6394,183.2632,517.1106,190.3226,523.0612,186.2494,521.59,179.19" style="stroke:#A80036;stroke-width:1.0;"/><polygon fill="#000000" points="510.136,222.206,516.235,214.9085,510.7809,212.7173,510.136,222.206" style="stroke:#000000;stroke-width:1.0;"/><text fill="#000000" font-family="sans-serif" font-size="13" lengthAdjust="spacing" textLength="42" x="521" y="222.0669">Part of</text><!--MD5=[162bd9f14b116b1620a5e64ad84e0518]
link Channel to Program--><path codeLine="90" d="M317.95,379.47 C330.45,400.91 357.5486,447.4175 357.5486,447.4175 " fill="none" id="Channel-Program" style="stroke:#A80036;stroke-width:1.0;"/><polygon fill="#FFFFFF" points="363.6,457.78,364.0285,450.5816,357.5486,447.4175,357.1202,454.6159,363.6,457.78" style="stroke:#A80036;stroke-width:1.0;"/><polygon fill="#A80036" points="311.35,368.14,312.4344,377.929,313.8714,372.4577,319.3427,373.8947,311.35,368.14" style="stroke:#A80036;stroke-width:1.0;"/><line style="stroke:#A80036;stroke-width:1.0;" x1="313.8714" x2="317.9" y1="372.4577" y2="379.375"/><polygon fill="#000000" points="352.5176,423.8863,350.5024,414.5917,345.424,417.5513,352.5176,423.8863" style="stroke:#000000;stroke-width:1.0;"/><text fill="#000000" font-family="sans-serif" font-size="13" lengthAdjust="spacing" textLength="41" x="359" y="424.0669">Shows</text><text fill="#000000" font-family="sans-serif" font-size="13" lengthAdjust="spacing" textLength="8" x="306.7742" y="388.2362">1</text><text fill="#000000" font-family="sans-serif" font-size="13" lengthAdjust="spacing" textLength="23" x="334.9891" y="446.7943">1..*</text><!--MD5=[286637dcaa03c9212d91116f113cc620]
link Credit to CreditRole--><path codeLine="92" d="M493.6,696.5 C493.6,696.5 527.68,696.5 542.68,696.5 " fill="none" id="Credit-CreditRole" style="stroke:#A80036;stroke-width:1.0;"/><polygon fill="#A80036" points="556,696.5,547,692.5,551,696.5,547,700.5,556,696.5" style="stroke:#A80036;stroke-width:1.0;"/><line style="stroke:#A80036;stroke-width:1.0;" x1="551" x2="543" y1="696.5" y2="696.5"/><polygon fill="#FFFFFF" points="481.6,696.5,487.6,700.5,493.6,696.5,487.6,692.5,481.6,696.5" style="stroke:#A80036;stroke-width:1.0;"/><polygon fill="#000000" points="508.75,685.0664,499.7049,682.1275,499.7049,688.0053,508.75,685.0664" style="stroke:#000000;stroke-width:1.0;"/><text fill="#000000" font-family="sans-serif" font-size="13" lengthAdjust="spacing" textLength="25" x="512.75" y="689.5669">Has</text><text fill="#000000" font-family="sans-serif" font-size="13" lengthAdjust="spacing" textLength="8" x="489.6438" y="692.9355">1</text><text fill="#000000" font-family="sans-serif" font-size="13" lengthAdjust="spacing" textLength="23" x="525.0047" y="709.5968">1..*</text><!--MD5=[2188ce9f683ca3d287b5c8641e215b9c]
link Program to Credit--><path codeLine="94" d="M392,570.17 C392,586.27 392,621.68 392,621.68 " fill="none" id="Program-Credit" style="stroke:#A80036;stroke-width:1.0;"/><polygon fill="#FFFFFF" points="392,633.68,396,627.68,392,621.68,388,627.68,392,633.68" style="stroke:#A80036;stroke-width:1.0;"/><polygon fill="#A80036" points="392,557.14,388,566.14,392,562.14,396,566.14,392,557.14" style="stroke:#A80036;stroke-width:1.0;"/><line style="stroke:#A80036;stroke-width:1.0;" x1="392" x2="392" y1="562.14" y2="570.14"/><polygon fill="#000000" points="397,600.5664,399.9389,591.5213,394.0611,591.5213,397,600.5664" style="stroke:#000000;stroke-width:1.0;"/><text fill="#000000" font-family="sans-serif" font-size="13" lengthAdjust="spacing" textLength="25" x="406" y="600.0669">Has</text><text fill="#000000" font-family="sans-serif" font-size="13" lengthAdjust="spacing" textLength="8" x="383.4375" y="577.2362">1</text><text fill="#000000" font-family="sans-serif" font-size="13" lengthAdjust="spacing" textLength="23" x="367.7422" y="623.0723">1..*</text><!--MD5=[8b34ded8b26f140bd7ef8771bfdd97a7]
link Person to Credit--><path codeLine="96" d="M280.37,696.5 C283.34,696.5 290.3,696.5 290.3,696.5 " fill="none" id="Person-Credit" style="stroke:#A80036;stroke-width:1.0;"/><polygon fill="#FFFFFF" points="302.3,696.5,296.3,692.5,290.3,696.5,296.3,700.5,302.3,696.5" style="stroke:#A80036;stroke-width:1.0;"/><polygon fill="#A80036" points="267.2,696.5,276.2,700.5,272.2,696.5,276.2,692.5,267.2,696.5" style="stroke:#A80036;stroke-width:1.0;"/><line style="stroke:#A80036;stroke-width:1.0;" x1="272.2" x2="280.2" y1="696.5" y2="696.5"/><text fill="#000000" font-family="sans-serif" font-size="13" lengthAdjust="spacing" textLength="8" x="274.9806" y="692.1963">1</text><text fill="#000000" font-family="sans-serif" font-size="13" lengthAdjust="spacing" textLength="8" x="286.5405" y="692.9584">1</text><!--MD5=[3619f0529956f45982a9ee1ca51baef0]
link ContactDetails to Person--><path codeLine="97" d="M169.23,696.5 C172.05,696.5 178.91,696.5 178.91,696.5 " fill="none" id="ContactDetails-Person" style="stroke:#A80036;stroke-width:1.0;"/><polygon fill="#A80036" points="190.91,696.5,184.91,692.5,178.91,696.5,184.91,700.5,190.91,696.5" style="stroke:#A80036;stroke-width:1.0;"/><polygon fill="#A80036" points="156.23,696.5,165.23,700.5,161.23,696.5,165.23,692.5,156.23,696.5" style="stroke:#A80036;stroke-width:1.0;"/><line style="stroke:#A80036;stroke-width:1.0;" x1="161.23" x2="169.23" y1="696.5" y2="696.5"/><text fill="#000000" font-family="sans-serif" font-size="13" lengthAdjust="spacing" textLength="8" x="163.8878" y="692.7074">1</text><text fill="#000000" font-family="sans-serif" font-size="13" lengthAdjust="spacing" textLength="8" x="174.8866" y="692.1499">1</text><!--MD5=[5b3edda9a056bd3810e1840c4ba912c8]
@startuml
'https://plantuml.com/class-diagram

package "domain" {
    'Personer her
    class Producer {
        - email : String
        - name : String
        - image : String
        - -
        + getName() : String
        + getEmail() : String
        + getImage(): String
        + validatePassword(String) : boolean
    }

    class CompanyAdministrator {
        - company: Company
    }

    class SystemAdministrator {
    }

    'Naeste
    class Company {
        - regNo : int
        - name : String
        - manager : String
        - -
        + getRegNo() : int
        + getName() : String
        + getManager() : String
    }

    class Channel {
        - name: String
        - category: String
        - -
        + getName() : String
        + getCategory() : String
    }

    class Program {
        - title: String
        -startTime: long
        -endTime: long
        - -
        + getTitle() : String
    }

    class CreditRole {
        - title : String
    }


    class Credit {
        - name : String
        - role : CreditRole
        - date : OffsetDateTime
        - -
        + getName() : String
        + getRole() : CreditRole
        + getDate() : OffsetDateTime
    }

    'Controller
    class AuthController {
        - -
        + resetPassword() : String
        + signIn() : Producer
    }

    class Person {
    }

    class ContactDetails {
    }
}

SystemAdministrator "1" - -> "1..*" Credit : "Approves >"
SystemAdministrator -|> CompanyAdministrator

CompanyAdministrator -|> Producer
CompanyAdministrator "*" o- -> "1" Company : "Manages >"
CompanyAdministrator "*" o- -> "*" Channel : "Manages >"

Producer "1" <- -o "1..*" Program : "Owns >"
Producer "1" <-o "1" AuthController : "Authenticates <"
Producer o- -> Company : "Part of >"

Channel "1" <- -o "1..*" Program : "Shows >"

Credit "1" o-> "1..*" CreditRole : "Has >"

Program "1" <- -o "1..*" Credit : "Has >"

Person "1" <-o "1" Credit
ContactDetails "1" <-* "1" Person

@enduml

@startuml

package "domain" {
    class Producer {
        - email : String
        - name : String
        - image : String
        - -
        + getName() : String
        + getEmail() : String
        + getImage(): String
        + validatePassword(String) : boolean
    }

    class CompanyAdministrator {
        - company: Company
    }

    class SystemAdministrator {
    }

    class Company {
        - regNo : int
        - name : String
        - manager : String
        - -
        + getRegNo() : int
        + getName() : String
        + getManager() : String
    }

    class Channel {
        - name: String
        - category: String
        - -
        + getName() : String
        + getCategory() : String
    }

    class Program {
        - title: String
        -startTime: long
        -endTime: long
        - -
        + getTitle() : String
    }

    class CreditRole {
        - title : String
    }


    class Credit {
        - name : String
        - role : CreditRole
        - date : OffsetDateTime
        - -
        + getName() : String
        + getRole() : CreditRole
        + getDate() : OffsetDateTime
    }

    class AuthController {
        - -
        + resetPassword() : String
        + signIn() : Producer
    }

    class Person {
    }

    class ContactDetails {
    }
}

SystemAdministrator "1" - -> "1..*" Credit : "Approves >"
SystemAdministrator -|> CompanyAdministrator

CompanyAdministrator -|> Producer
CompanyAdministrator "*" o- -> "1" Company : "Manages >"
CompanyAdministrator "*" o- -> "*" Channel : "Manages >"

Producer "1" <- -o "1..*" Program : "Owns >"
Producer "1" <-o "1" AuthController : "Authenticates <"
Producer o- -> Company : "Part of >"

Channel "1" <- -o "1..*" Program : "Shows >"

Credit "1" o-> "1..*" CreditRole : "Has >"

Program "1" <- -o "1..*" Credit : "Has >"

Person "1" <-o "1" Credit
ContactDetails "1" <-* "1" Person

@enduml

PlantUML version 1.2021.5(Sun Apr 25 11:20:28 UTC 2021)
(GPL source distribution)
Java Runtime: OpenJDK Runtime Environment
JVM: OpenJDK 64-Bit Server VM
Default Encoding: UTF-8
Language: en
Country: null
--></g></svg>